<svg width="34" height="33" viewBox="0 0 34 33" fill="none" xmlns="http://www.w3.org/2000/svg">
<path d="M25.7605 15.8027H27.6941C27.6941 20.6367 23.7625 24.5039 18.9285 24.5039C14.0945 24.5039 10.2273 20.6367 10.2273 15.8027H12.1609C12.1609 19.541 15.1902 22.5703 18.9285 22.5703C22.6667 22.5703 25.7605 19.541 25.7605 15.8027ZM15.0613 12.9023C16.157 12.9023 16.9949 12 16.9949 10.9688C16.9949 9.87305 16.157 9.03516 15.0613 9.03516C13.9656 9.03516 13.1277 9.87305 13.1277 10.9688C13.1277 12 13.9656 12.9023 15.0613 12.9023ZM22.7957 12.9023C23.8914 12.9023 24.7292 12 24.7292 10.9688C24.7292 9.87305 23.8914 9.03516 22.7957 9.03516C21.7644 9.03516 20.8621 9.87305 20.8621 10.9688C20.8621 12 21.7644 12.9023 22.7957 12.9023ZM33.4949 14.8359C33.4949 22.8281 26.9851 29.4023 18.9285 29.4023C16.3503 29.4023 13.7722 28.6934 11.5808 27.3398L0.881592 32.8828L6.42456 22.1836C5.07104 19.9922 4.36206 17.4141 4.36206 14.8359C4.36206 6.7793 10.9363 0.269531 18.9285 0.269531C26.9851 0.269531 33.4949 6.7793 33.4949 14.8359ZM31.5613 14.8359C31.5613 7.875 25.8894 2.20312 18.9285 2.20312C11.9675 2.20312 6.29565 7.875 6.29565 14.8359C6.29565 17.2207 7.00464 19.6055 8.35815 21.668L8.61597 22.1191L5.39331 28.3711L11.6453 25.1484L12.0964 25.4062C14.1589 26.7598 16.5437 27.4688 18.9285 27.4688C25.8894 27.4688 31.5613 21.7969 31.5613 14.8359Z" fill="#FF214F"/>
</svg>
