<svg width="21" height="18" viewBox="0 0 21 18" fill="none" xmlns="http://www.w3.org/2000/svg">
<path d="M20.0637 4.12695L13.8137 0.0644531L10.22 3.0332L6.62622 0.0644531L0.376221 4.12695L4.0481 7.01758L0.376221 9.94727L4.43872 12.6035V14.4004L10.22 17.8379L16.0403 14.4004V12.5645L20.0637 9.94727L16.3918 7.01758L20.0637 4.12695ZM13.8918 1.50977L18.0325 4.20508L15.4153 6.31445L11.2356 3.73633L13.8918 1.50977ZM14.3215 7.01758L10.22 9.55664L6.11841 7.01758L10.22 4.47852L14.3215 7.01758ZM2.40747 4.20508L6.5481 1.50977L9.20435 3.73633L5.02466 6.31445L2.40747 4.20508ZM2.40747 9.83008L5.02466 7.75977L9.20435 10.3379L6.5481 12.5645L2.40747 9.83008ZM14.8684 13.7363L10.22 16.4707L5.6106 13.7363V13.3457L6.62622 14.0098L10.22 11.041L13.8137 14.0098L14.8684 13.3457V13.7363ZM18.0325 9.83008L13.8918 12.5645L11.2356 10.3379L15.4153 7.75977L18.0325 9.83008Z" fill="#FF214F"/>
</svg>
