<svg width="21" height="18" viewBox="0 0 21 18" fill="none" xmlns="http://www.w3.org/2000/svg">
<path d="M16.1606 12.0566C16.1606 12.916 15.6919 14.3613 14.5981 14.3613C13.5435 14.3613 13.0747 12.916 13.0747 12.0566C13.0747 11.1582 13.5435 9.75195 14.5981 9.75195C15.6919 9.75195 16.1606 11.1582 16.1606 12.0566ZM6.94189 9.75195C5.84814 9.75195 5.37939 11.1582 5.37939 12.0566C5.37939 12.916 5.84814 14.3613 6.94189 14.3613C7.99658 14.3613 8.46533 12.916 8.46533 12.0566C8.46533 11.1582 7.99658 9.75195 6.94189 9.75195ZM20.77 9.94727C20.77 11.2754 20.6528 12.6816 20.0278 13.8926C18.4653 17.1348 14.0903 17.4473 10.9653 17.4473C7.80127 17.4473 3.15283 17.1738 1.51221 13.8926C0.887207 12.6816 0.77002 11.2754 0.77002 9.94727C0.77002 8.18945 1.23877 6.50977 2.41064 5.18164C2.17627 4.51758 2.09814 3.81445 2.09814 3.11133C2.09814 2.21289 2.29346 1.31445 2.68408 0.494141C4.59814 0.494141 5.80908 1.35352 7.25439 2.48633C8.46533 2.17383 9.71533 2.05664 10.9653 2.05664C12.0981 2.05664 13.231 2.17383 14.3247 2.44727C15.77 1.31445 16.981 0.494141 18.856 0.494141C19.2466 1.31445 19.4419 2.21289 19.4419 3.11133C19.4419 3.81445 19.3638 4.51758 19.1294 5.14258C20.3013 6.50977 20.77 8.18945 20.77 9.94727ZM18.0747 12.0566C18.0747 10.2207 16.9419 8.58008 14.9888 8.58008C14.2075 8.58008 13.4653 8.73633 12.645 8.85352C12.02 8.93164 11.395 8.9707 10.77 8.9707C10.145 8.9707 9.52002 8.93164 8.89502 8.85352C8.11377 8.73633 7.33252 8.58008 6.55127 8.58008C4.59814 8.58008 3.46533 10.2207 3.46533 12.0566C3.46533 15.7285 6.82471 16.2754 9.75439 16.2754H11.7856C14.7153 16.2754 18.0747 15.7285 18.0747 12.0566Z" fill="#FF214F"/>
</svg>
