<svg width="34" height="34" viewBox="0 0 34 34" fill="none" xmlns="http://www.w3.org/2000/svg">
<path d="M16.9949 0.200195C7.90698 0.200195 0.494873 7.6123 0.494873 16.7002C0.494873 25.7881 7.90698 33.2002 16.9949 33.2002C26.0828 33.2002 33.4949 25.7881 33.4949 16.7002C33.4949 7.6123 26.0828 0.200195 16.9949 0.200195ZM16.9949 31.2666C8.93823 31.2666 2.42847 24.7568 2.42847 16.7002C2.42847 8.64355 8.93823 2.13379 16.9949 2.13379C25.0515 2.13379 31.5613 8.64355 31.5613 16.7002C31.5613 24.7568 25.0515 31.2666 16.9949 31.2666ZM25.7605 17.667C25.7605 22.501 21.8289 26.4326 16.9949 26.4326C12.1609 26.4326 8.22925 22.501 8.22925 17.667C8.22925 17.1514 8.68042 16.7002 9.2605 16.7002C9.77612 16.7002 10.2273 17.1514 10.2273 17.667C10.2273 21.4053 13.2566 24.4346 16.9949 24.4346C20.7332 24.4346 23.7625 21.4053 23.7625 17.667C23.7625 17.1514 24.2136 16.7002 24.7292 16.7002C25.3093 16.7002 25.7605 17.1514 25.7605 17.667ZM9.2605 10.8994C9.2605 9.80371 10.0984 8.96582 11.1941 8.96582C12.2253 8.96582 13.1277 9.80371 13.1277 10.8994C13.1277 11.9307 12.2253 12.833 11.1941 12.833C10.0984 12.833 9.2605 11.9307 9.2605 10.8994ZM20.8621 10.8994C20.8621 9.80371 21.7644 8.96582 22.7957 8.96582C23.8914 8.96582 24.7292 9.80371 24.7292 10.8994C24.7292 11.9307 23.8914 12.833 22.7957 12.833C21.7644 12.833 20.8621 11.9307 20.8621 10.8994Z" fill="#FF214F"/>
</svg>
