<svg width="20" height="30" viewBox="0 0 20 30" fill="none" xmlns="http://www.w3.org/2000/svg">
<path d="M10 0.539062C4.66797 0.539062 0.273438 4.875 0.273438 10.2656C0.273438 17.9414 8.94531 28.0195 9.35547 28.4883L10 29.25L10.6445 28.4883C11.0547 28.0195 19.7266 17.9414 19.7266 10.2656C19.7266 4.875 15.332 0.539062 10 0.539062ZM10 26.4961C7.94922 23.9766 2.03125 16.125 2.03125 10.2656C2.03125 5.87109 5.60547 2.29688 10 2.29688C14.3945 2.29688 17.9688 5.87109 17.9688 10.2656C17.9688 16.125 12.0508 23.9766 10 26.4961ZM10 5.22656C7.07031 5.22656 4.72656 7.57031 4.72656 10.5C4.72656 13.4297 7.07031 15.7734 10 15.7734C12.9297 15.7734 15.2734 13.4297 15.2734 10.5C15.2734 7.57031 12.9297 5.22656 10 5.22656ZM10 14.0156C8.06641 14.0156 6.48438 12.4336 6.48438 10.5C6.48438 8.56641 8.06641 6.98438 10 6.98438C11.9336 6.98438 13.5156 8.56641 13.5156 10.5C13.5156 12.4336 11.9336 14.0156 10 14.0156Z" fill="#FF214F"/>
</svg>
