<svg width="20" height="31" viewBox="0 0 20 31" fill="none" xmlns="http://www.w3.org/2000/svg">
<path d="M17.0312 0.610352H2.96875C1.50391 0.610352 0.273438 1.78223 0.273438 3.24707V27.9736C0.273438 29.4385 1.50391 30.6104 2.96875 30.6104H17.0312C18.4961 30.6104 19.7266 29.4385 19.7266 27.9736V3.24707C19.7266 1.78223 18.4961 0.610352 17.0312 0.610352ZM2.96875 2.36816H17.0312C17.5586 2.36816 17.9688 2.77832 17.9688 3.24707V5.88379H2.03125V3.24707C2.03125 2.77832 2.44141 2.36816 2.96875 2.36816ZM17.9688 7.6416V21.7627H2.03125V7.6416H17.9688ZM17.0312 28.8525H2.96875C2.44141 28.8525 2.03125 28.4424 2.03125 27.9736V23.5791H17.9688V27.9736C17.9688 28.4424 17.5586 28.8525 17.0312 28.8525ZM10.8789 26.2158C10.8789 26.6846 10.4688 27.0947 10 27.0947C9.53125 27.0947 9.12109 26.6846 9.12109 26.2158C9.12109 25.6885 9.53125 25.3369 10 25.3369C10.4688 25.3369 10.8789 25.6885 10.8789 26.2158Z" fill="#FF214F"/>
</svg>
