<svg width="33" height="33" viewBox="0 0 33 33" fill="none" xmlns="http://www.w3.org/2000/svg">
<path d="M31.1719 18.2307C31.3281 18.6995 31.4844 19.3245 31.4844 20.1057C31.4844 21.3557 30.9375 22.3713 30 22.9963C30.3125 23.5432 30.4688 24.1682 30.4688 24.7932C30.4688 26.1213 29.7656 27.2932 28.6719 27.8401C28.8281 28.3088 28.9062 28.8557 28.9844 29.4807C28.9844 30.5745 28.6719 31.4338 28.0469 32.0588C27.3438 32.6838 26.4844 32.9963 25.3125 32.9963H12.0312C10.3125 32.9963 9.0625 32.0588 8.20312 31.3557C7.65625 30.9651 7.1875 30.5745 6.79688 30.5745H1.875C1.25 30.5745 0.703125 30.1057 0.703125 29.4026C0.703125 28.7776 1.25 28.2307 1.875 28.2307H6.79688C7.96875 28.2307 8.82812 28.9338 9.60938 29.5588C10.3906 30.1057 11.0938 30.6526 12.0312 30.6526H25.3125C25.7812 30.6526 26.1719 30.5745 26.3281 30.4182C26.4844 30.1838 26.5625 29.9495 26.5625 29.5588C26.5625 28.4651 26.4062 28.3088 24.1406 28.3088H23.9062C23.2812 28.3088 22.7344 27.762 22.7344 27.137C22.7344 26.4338 23.2812 25.9651 23.9062 25.9651H26.875C27.5781 25.9651 28.125 25.4963 28.125 24.7932C28.125 23.7776 27.1094 23.6213 26.4844 23.6213H24.6875C24.0625 23.6213 23.5156 23.0745 23.5156 22.4495C23.5156 21.7463 24.0625 21.2776 24.6875 21.2776H28.0469C28.8281 21.2776 29.1406 20.6526 29.1406 20.1057C29.1406 18.9338 29.1406 18.9338 28.125 18.9338C27.9688 18.9338 27.8125 18.9338 27.7344 18.9338H25.1562C24.5312 18.9338 23.9844 18.387 23.9844 17.762C23.9844 17.0588 24.5312 16.5901 25.1562 16.5901H27.5C27.5 16.5901 27.5 16.5901 27.5781 16.5901H29.0625C29.6875 16.5901 30.3125 16.0432 30.3125 15.3401C30.3125 14.7151 29.7656 14.1682 29.0625 14.1682H18.5156C18.2031 14.1682 17.8906 14.012 17.6562 13.7776C17.4219 13.4651 17.3438 13.1526 17.4219 12.762L18.5938 6.35571C18.75 5.73071 19.2188 3.85571 18.6719 3.07446C18.5938 2.84009 18.2812 2.60571 17.8906 2.60571C17.4219 2.60571 16.9531 2.99634 16.5625 3.69946L8.90625 15.9651C8.75 16.3557 8.35938 16.5901 7.96875 16.5901H1.875C1.25 16.5901 0.703125 16.0432 0.703125 15.3401C0.703125 14.7151 1.25 14.1682 1.875 14.1682H7.26562L14.5312 2.44946C15.7031 0.574463 17.1094 0.261963 17.8906 0.261963C19.0625 0.261963 20.1562 0.886963 20.7031 1.90259C21.5625 3.30884 21.25 5.26196 20.9375 6.82446L20 11.8245H29.0625C31.0156 11.8245 32.6562 13.387 32.6562 15.3401C32.6562 16.512 32.0312 17.6057 31.1719 18.2307Z" fill="#FF214F"/>
</svg>
