<svg width="40" height="42" viewBox="0 0 40 42" fill="none" xmlns="http://www.w3.org/2000/svg">
<g clip-path="url(#clip0_1_26)">
<path d="M2.34375 1.34009V41.3401H37.6562V1.34009H2.34375ZM35.3125 38.9963H4.6875V3.68384H9.375V6.26196C8.04688 6.73071 7.03125 8.05884 7.03125 9.54321C7.03125 11.4963 8.67188 13.137 10.625 13.137C12.5 13.137 14.1406 11.4963 14.1406 9.54321C14.1406 8.05884 13.125 6.73071 11.7969 6.26196V3.68384H18.8281V6.26196C17.4219 6.73071 16.4844 8.05884 16.4844 9.54321C16.4844 11.4963 18.0469 13.137 20 13.137C21.9531 13.137 23.5156 11.4963 23.5156 9.54321C23.5156 8.05884 22.5781 6.73071 21.1719 6.26196V3.68384H28.2031V6.26196C26.875 6.73071 25.8594 8.05884 25.8594 9.54321C25.8594 11.4963 27.5 13.137 29.375 13.137C31.3281 13.137 32.9688 11.4963 32.9688 9.54321C32.9688 8.05884 31.9531 6.73071 30.625 6.26196V3.68384H35.3125V38.9963ZM11.7969 9.54321C11.7969 10.2463 11.25 10.7151 10.625 10.7151C9.92188 10.7151 9.375 10.2463 9.375 9.54321C9.375 8.91821 9.92188 8.37134 10.625 8.37134C11.25 8.37134 11.7969 8.91821 11.7969 9.54321ZM21.1719 9.54321C21.1719 10.2463 20.625 10.7151 20 10.7151C19.375 10.7151 18.8281 10.2463 18.8281 9.54321C18.8281 8.91821 19.375 8.37134 20 8.37134C20.625 8.37134 21.1719 8.91821 21.1719 9.54321ZM30.625 9.54321C30.625 10.2463 30.0781 10.7151 29.375 10.7151C28.75 10.7151 28.2031 10.2463 28.2031 9.54321C28.2031 8.91821 28.75 8.37134 29.375 8.37134C30.0781 8.37134 30.625 8.91821 30.625 9.54321Z" fill="#FF214F"/>
</g>
<defs>
<clipPath id="clip0_1_26">
<rect width="40" height="41" fill="white" transform="matrix(1 0 0 -1 0 41.8401)"/>
</clipPath>
</defs>
</svg>
