<svg width="34" height="42" viewBox="0 0 34 42" fill="none" xmlns="http://www.w3.org/2000/svg">
<path d="M8.54688 0.940186H3.9375C1.98438 0.940186 0.34375 2.50269 0.34375 4.45581V29.5339L6.28125 41.1746L12.0625 29.5339V4.45581C12.0625 2.50269 10.5 0.940186 8.54688 0.940186ZM3.9375 3.28394H8.54688C9.25 3.28394 9.71875 3.83081 9.71875 4.45581V6.87769H2.6875V4.45581C2.6875 3.83081 3.23438 3.28394 3.9375 3.28394ZM2.6875 11.6433V9.22144H9.71875V11.6433H2.6875ZM7.29688 33.9089H5.26562L2.6875 28.9871V13.9871H5.10938V29.2214H7.45312V13.9871H9.71875V28.9871L7.29688 33.9089ZM16.8281 0.940186V40.9402H33.3125V0.940186H16.8281ZM30.9688 38.5964H19.1719V36.2527H23.8594V33.9089H19.1719V31.5652H21.5156V29.1433H19.1719V26.7996H23.8594V24.4558H19.1719V22.1902H21.5156V19.7683H19.1719V17.4246H23.8594V15.0808H19.1719V12.7371H21.5156V10.3152H19.1719V7.97144H23.8594V5.62769H19.1719V3.28394H30.9688V38.5964Z" fill="#FF214F"/>
</svg>
