<svg width="38" height="39" viewBox="0 0 38 39" fill="none" xmlns="http://www.w3.org/2000/svg">
<path d="M19 0.302002C8.60938 0.302002 0.171875 8.7395 0.171875 19.1301C0.171875 29.2083 8.0625 37.4895 18.1406 37.8801L21.1875 38.0364L14.7812 31.6301C14.0781 31.0051 13.6875 30.0676 13.6875 29.1301C13.6875 28.1926 14.0781 27.3333 14.7812 26.6301C16.1094 25.302 18.4531 25.302 19.7812 26.6301L28.5312 35.3801L29.3125 34.9114C34.625 31.3958 37.8281 25.4583 37.8281 19.1301C37.8281 8.7395 29.3906 0.302002 19 0.302002ZM28.7656 32.3333L21.4219 24.9895C19.1562 22.802 15.3281 22.802 13.0625 24.9895C11.9688 26.0833 11.3438 27.5676 11.3438 29.1301C11.3438 30.6926 11.9688 32.177 13.0625 33.2708L14.8594 35.0676C7.75 33.1926 2.51562 26.7864 2.51562 19.1301C2.51562 10.0676 9.9375 2.64575 19 2.64575C28.0625 2.64575 35.4844 10.0676 35.4844 19.1301C35.4844 24.3645 32.9844 29.2864 28.7656 32.3333ZM26.0312 14.4426C23.4531 14.4426 21.3438 16.552 21.3438 19.1301C21.3438 21.7083 23.4531 23.8176 26.0312 23.8176C28.6875 23.8176 30.7969 21.7083 30.7969 19.1301C30.7969 16.552 28.6875 14.4426 26.0312 14.4426ZM26.0312 21.4739C24.7812 21.4739 23.6875 20.4583 23.6875 19.1301C23.6875 17.802 24.7812 16.7864 26.0312 16.7864C27.3594 16.7864 28.375 17.802 28.375 19.1301C28.375 20.4583 27.3594 21.4739 26.0312 21.4739ZM19 13.2708C17.0469 13.2708 15.4844 11.6301 15.4844 9.75513C15.4844 7.802 17.0469 6.16138 19 6.16138C20.9531 6.16138 22.5156 7.802 22.5156 9.75513C22.5156 11.6301 20.9531 13.2708 19 13.2708ZM12.5156 12.9583C12.5156 14.2864 11.5 15.3801 10.1719 15.3801C8.84375 15.3801 7.82812 14.2864 7.82812 12.9583C7.82812 11.7083 8.84375 10.6145 10.1719 10.6145C11.5 10.6145 12.5156 11.7083 12.5156 12.9583Z" fill="#FF214F"/>
</svg>
