<svg width="38" height="41" viewBox="0 0 38 41" fill="none" xmlns="http://www.w3.org/2000/svg">
<path d="M35.3125 5.62769V0.940186H4.6875V5.62769H3.51562C1.5625 5.62769 0 7.26831 0 9.22144V16.2527C0 18.2058 1.5625 19.7683 3.51562 19.7683H17.6562C18.2812 19.7683 18.8281 20.3152 18.8281 20.9402V24.4558H16.4844V40.9402H23.5156V24.4558H21.1719V20.9402C21.1719 18.9871 19.6094 17.4246 17.6562 17.4246H3.51562C2.89062 17.4246 2.34375 16.8777 2.34375 16.2527V9.22144C2.34375 8.51831 2.89062 7.97144 3.51562 7.97144H4.6875V15.0808H35.3125V7.97144H37.6562V5.62769H35.3125ZM21.1719 38.5964H18.8281V26.7996H21.1719V38.5964ZM32.9688 12.7371H7.03125V3.28394H32.9688V12.7371Z" fill="#FF214F"/>
</svg>
