<svg width="21" height="18" viewBox="0 0 21 18" fill="none" xmlns="http://www.w3.org/2000/svg">
<path d="M20.6699 2.75977C19.9277 3.11133 19.1465 3.30664 18.3262 3.42383C19.1465 2.91602 19.8105 2.0957 20.123 1.1582C19.3418 1.62695 18.4434 1.97852 17.5059 2.13477C16.7637 1.35352 15.709 0.845703 14.498 0.845703C12.2324 0.845703 10.4355 2.68164 10.4355 4.94727C10.4355 5.25977 10.4746 5.57227 10.5137 5.88477C7.11523 5.72852 4.06836 4.08789 2.07617 1.58789C1.72461 2.21289 1.49023 2.91602 1.49023 3.6582C1.49023 5.10352 2.23242 6.35352 3.32617 7.0957C2.66211 7.05664 2.03711 6.86133 1.49023 6.54883C1.49023 6.58789 1.49023 6.58789 1.49023 6.62695C1.49023 8.61914 2.89648 10.2598 4.77148 10.6504C4.41992 10.7285 4.06836 10.7676 3.67773 10.7676C3.44336 10.7676 3.16992 10.7285 2.93555 10.6895C3.44336 12.3301 4.9668 13.502 6.76367 13.541C5.35742 14.6738 3.56055 15.2988 1.64648 15.2988C1.33398 15.2988 0.982422 15.2988 0.669922 15.2598C2.4668 16.4316 4.6543 17.0957 6.95898 17.0957C14.498 17.0957 18.6387 10.8457 18.6387 5.41602C18.6387 5.25977 18.6387 5.06445 18.5996 4.9082C19.4199 4.32227 20.123 3.58008 20.6699 2.75977ZM17.4668 5.41602C17.4668 9.79102 14.1855 15.9238 6.95898 15.9238C6.37305 15.9238 5.82617 15.8848 5.24023 15.7676C6.02148 15.4551 6.80273 15.0254 7.4668 14.4785C7.85742 14.166 8.01367 13.6582 7.85742 13.1895C7.70117 12.7207 7.27148 12.3691 6.76367 12.3691C6.13867 12.3691 5.51367 12.1348 5.04492 11.7832C5.5918 11.627 5.94336 11.1582 5.94336 10.6113C5.94336 10.0645 5.55273 9.5957 5.00586 9.47852C4.22461 9.32227 3.59961 8.85352 3.16992 8.26758C3.20898 8.26758 3.24805 8.26758 3.28711 8.26758H3.32617C3.83398 8.26758 4.30273 7.91602 4.45898 7.44727C4.61523 6.93945 4.41992 6.39258 3.99023 6.11914C3.24805 5.61133 2.7793 4.83008 2.70117 3.93164C4.84961 5.80664 7.58398 6.90039 10.4746 7.05664H10.5137C10.8652 7.05664 11.1777 6.90039 11.4121 6.66602C11.6465 6.39258 11.7246 6.00195 11.6855 5.65039C11.6074 5.41602 11.6074 5.18164 11.6074 4.94727C11.6074 3.3457 12.8965 2.01758 14.498 2.01758C15.3184 2.01758 16.0996 2.36914 16.6465 2.95508C16.8027 3.11133 16.959 3.18945 17.1543 3.26758C17.1152 3.42383 17.1152 3.61914 17.1934 3.77539C17.2715 4.00977 17.3887 4.20508 17.584 4.32227C17.4668 4.51758 17.4277 4.75195 17.4277 4.98633C17.4668 5.14258 17.4668 5.25977 17.4668 5.41602Z" fill="#FF214F"/>
</svg>
