<svg width="30" height="31" viewBox="0 0 30 31" fill="none" xmlns="http://www.w3.org/2000/svg">
<path d="M15 0.520508C6.73828 0.520508 0 7.25879 0 15.5205C0 23.7822 6.73828 30.5205 15 30.5205C23.3203 30.5205 30 23.7822 30 15.5205C30 7.25879 23.3203 0.520508 15 0.520508ZM1.81641 16.3994H7.03125C7.08984 18.2158 7.38281 19.9736 7.91016 21.6729H3.33984C2.46094 20.0908 1.93359 18.2744 1.81641 16.3994ZM7.03125 14.6416H1.81641C1.93359 12.7666 2.46094 10.9502 3.33984 9.36816H7.91016C7.38281 11.0674 7.08984 12.8252 7.03125 14.6416ZM9.78516 9.36816H20.2148C20.8008 11.0674 21.0938 12.8252 21.2109 14.6416H8.78906C8.84766 12.8252 9.19922 11.0674 9.78516 9.36816ZM8.78906 16.3994H21.2109C21.0938 18.2158 20.8008 19.9736 20.2148 21.6729H9.78516C9.19922 19.9736 8.84766 18.2158 8.78906 16.3994ZM22.9688 16.3994H28.2422C28.0664 18.2744 27.5977 20.0908 26.7188 21.6729H22.0312C22.6172 19.9736 22.9102 18.2158 22.9688 16.3994ZM22.9688 14.6416C22.9102 12.8252 22.6172 11.0674 22.0898 9.36816H26.7188C27.5977 10.9502 28.0664 12.7666 28.2422 14.6416H22.9688ZM25.6055 7.55176H21.4453C20.7422 5.91113 19.8047 4.3291 18.6914 2.80566C21.5039 3.62598 23.9062 5.3252 25.6055 7.55176ZM15.9961 2.33691C17.4609 3.91895 18.6328 5.67676 19.5117 7.55176H10.4883C11.3672 5.67676 12.5391 3.91895 13.9453 2.33691C14.2969 2.33691 14.6484 2.27832 15 2.27832C15.3516 2.27832 15.7031 2.33691 15.9961 2.33691ZM11.25 2.86426C10.1367 4.3291 9.25781 5.91113 8.55469 7.55176H4.45312C6.15234 5.3252 8.49609 3.62598 11.25 2.86426ZM4.45312 23.4893H8.55469C9.25781 25.1299 10.1953 26.7119 11.3086 28.2354C8.55469 27.415 6.15234 25.7158 4.45312 23.4893ZM14.0039 28.7041C12.5391 27.1221 11.3672 25.3643 10.4883 23.4893H19.5117C18.6328 25.3643 17.4609 27.1221 15.9961 28.7041C15.7031 28.7041 15.3516 28.7627 15 28.7627C14.6484 28.7627 14.3555 28.7041 14.0039 28.7041ZM18.6914 28.2354C19.8047 26.7705 20.7422 25.1299 21.4453 23.4893H25.6055C23.9062 25.7158 21.5039 27.415 18.6914 28.2354Z" fill="#FF214F"/>
</svg>
