<?xml version="1.0" encoding="utf-8"?>
<!-- Generator: Adobe Illustrator 27.1.0, SVG Export Plug-In . SVG Version: 6.00 Build 0)  -->
<svg version="1.1" id="Ebene_1" xmlns="http://www.w3.org/2000/svg" xmlns:xlink="http://www.w3.org/1999/xlink" x="0px" y="0px"
	 viewBox="0 0 200 200" style="enable-background:new 0 0 200 200;" xml:space="preserve">
<style type="text/css">
	.st0{fill:#FF0000;}
</style>
<path class="st0" d="M79.9,199c-6.1,0-11-4.9-11-11v-82.7L6.6,18.5C3.1,13.6,4.1,6.7,9.1,3.1C10.9,1.7,13.2,1,15.6,1h168.8
	c6.1,0,11,4.9,11.1,10.9c0,2.3-0.7,4.6-2.1,6.5l-62,87.7l-2.5,72.5c-0.2,4.9-3.5,9.1-8.2,10.3l-37.9,9.7
	C81.8,198.9,80.8,199,79.9,199L79.9,199z M15.6,11.8c-0.1,0-0.2,0-0.2,0.1l62.2,87c1.3,1.9,2.1,4.1,2.1,6.4V188l0.3,0.2l37.9-9.7
	c0.1,0,0.2-0.1,0.2-0.2l2.5-72.4c0.1-2.2,0.8-4.2,2-6l62-87.7l-0.2-0.4L15.6,11.8L15.6,11.8z"/>
</svg>
