<svg width="33" height="50" viewBox="0 0 33 50" fill="none" xmlns="http://www.w3.org/2000/svg">
<path d="M28.0287 0H4.59125C2.14984 0 0.0990601 1.95312 0.0990601 4.39453V45.6055C0.0990601 48.0469 2.14984 50 4.59125 50H28.0287C30.4702 50 32.5209 48.0469 32.5209 45.6055V4.39453C32.5209 1.95312 30.4702 0 28.0287 0ZM4.59125 2.92969H28.0287C28.9077 2.92969 29.5912 3.61328 29.5912 4.39453V8.78906H3.02875V4.39453C3.02875 3.61328 3.71234 2.92969 4.59125 2.92969ZM29.5912 11.7188V35.2539H3.02875V11.7188H29.5912ZM28.0287 47.0703H4.59125C3.71234 47.0703 3.02875 46.3867 3.02875 45.6055V38.2812H29.5912V45.6055C29.5912 46.3867 28.9077 47.0703 28.0287 47.0703ZM17.7748 42.6758C17.7748 43.457 17.0912 44.1406 16.31 44.1406C15.5287 44.1406 14.8452 43.457 14.8452 42.6758C14.8452 41.7969 15.5287 41.2109 16.31 41.2109C17.0912 41.2109 17.7748 41.7969 17.7748 42.6758Z" fill="#FF214F"/>
</svg>
